<svg width="237.4000061035156px" height="84.00000305175782px" xmlns="http://www.w3.org/2000/svg" viewBox="131.2999969482422 32.99999847412109 237.4000061035156 84.00000305175782" style="background: rgba(29, 63, 114, 0);" preserveAspectRatio="xMidYMid"><defs><linearGradient id="editing-gradient-gradient" x1="0" x2="1" y1="0.5" y2="0.5" gradientUnits="objectBoundingBox"><stop offset="0" stop-color="#214bc1"></stop><stop offset="1" stop-color="#d8ebf9"></stop></linearGradient></defs><g><g transform="translate(170.0749819278717, 92.53999710083008)"><path d="M15.57-22.51L15.57-22.51L15.57-22.51Q15.39-22.58 15.14-22.76L15.14-22.76L15.14-22.76Q14.89-22.94 14.42-23.11L14.42-23.11L14.42-23.11Q13.95-23.27 13.22-23.38L13.22-23.38L13.22-23.38Q12.50-23.49 11.38-23.41L11.38-23.41L11.38-27.06L11.38-27.06Q12.97-27.03 14.62-26.72L14.62-26.72L14.62-26.72Q16.26-26.41 17.27-25.76L17.27-25.76L17.27-25.76Q17.05-25.29 16.77-24.73L16.77-24.73L16.77-24.73Q16.48-24.17 16.22-23.69L16.22-23.69L16.22-23.69Q15.97-23.20 15.79-22.87L15.79-22.87L15.79-22.87Q15.61-22.55 15.57-22.51ZM3.11-19.62L3.11-19.62L3.11-19.62Q3.11-21.21 3.65-22.47L3.65-22.47L3.65-22.47Q4.19-23.74 5.11-24.70L5.11-24.70L5.11-24.70Q6.03-25.65 7.28-26.21L7.28-26.21L7.28-26.21Q8.53-26.77 9.90-26.96L9.90-26.96L9.90-23.16L9.90-23.16Q8.74-22.76 7.99-21.77L7.99-21.77L7.99-21.77Q7.23-20.78 7.23-19.76L7.23-19.76L7.23-19.76Q7.23-18.36 7.99-17.49L7.99-17.49L7.99-17.49Q8.74-16.62 9.90-15.97L9.90-15.97L9.90-11.85L9.90-11.85Q8.71-12.43 7.52-13.10L7.52-13.10L7.52-13.10Q6.32-13.77 5.35-14.67L5.35-14.67L5.35-14.67Q4.37-15.57 3.74-16.77L3.74-16.77L3.74-16.77Q3.11-17.96 3.11-19.62ZM2.93-1.77L3.69-4.88L3.69-4.88Q4.19-4.59 4.97-4.32L4.97-4.32L4.97-4.32Q5.75-4.05 6.58-3.81L6.58-3.81L6.58-3.81Q7.41-3.58 8.24-3.43L8.24-3.43L8.24-3.43Q9.07-3.29 9.79-3.29L9.79-3.29L9.90-3.29L9.90 0.14L9.83 0.14L9.83 0.14Q8.96 0.14 8.04 0.05L8.04 0.05L8.04 0.05Q7.12-0.04 6.18-0.25L6.18-0.25L6.18-0.25Q5.24-0.47 4.39-0.85L4.39-0.85L4.39-0.85Q3.54-1.23 2.93-1.77L2.93-1.77ZM11.38-11.02L11.38-15.25L11.38-15.25Q12.57-14.71 13.82-14.09L13.82-14.09L13.82-14.09Q15.07-13.48 16.08-12.59L16.08-12.59L16.08-12.59Q17.09-11.71 17.74-10.44L17.74-10.44L17.74-10.44Q18.39-9.18 18.39-7.30L18.39-7.30L18.39-7.30Q18.39-6.00 17.90-4.77L17.90-4.77L17.90-4.77Q17.42-3.54 16.53-2.55L16.53-2.55L16.53-2.55Q15.65-1.55 14.34-0.87L14.34-0.87L14.34-0.87Q13.04-0.18 11.38 0.04L11.38 0.04L11.38-3.43L11.38-3.43Q14.34-4.16 14.34-7.37L14.34-7.37L14.34-7.37Q14.34-8.64 13.51-9.47L13.51-9.47L13.51-9.47Q12.68-10.30 11.38-11.02L11.38-11.02ZM22.69-20.38L26.59-20.38L27.06-18.32L27.06 0L22.69 0L22.69-20.38ZM37.87-18.14L37.87-18.14L37.87-18.14Q38.48-17.52 38.82-16.71L38.82-16.71L38.82-16.71Q39.17-15.90 39.33-15.01L39.33-15.01L39.33-15.01Q39.49-14.13 39.53-13.22L39.53-13.22L39.53-13.22Q39.57-12.32 39.57-11.45L39.57-11.45L39.57-0.72L39.57 0L35.16 0L35.16-11.09L35.16-11.09Q35.16-12.32 35.05-13.44L35.05-13.44L35.05-13.44Q34.94-14.56 34.54-15.43L34.54-15.43L34.54-15.43Q34.15-16.30 33.46-16.78L33.46-16.78L33.46-16.78Q32.77-17.27 31.54-17.27L31.54-17.27L31.54-17.27Q31.04-17.27 30.19-17.11L30.19-17.11L30.19-17.11Q29.34-16.95 28.54-16.58L28.54-16.58L28.54-19.37L28.54-19.37Q29.52-19.87 30.66-20.23L30.66-20.23L30.66-20.23Q31.80-20.60 32.88-20.60L32.88-20.60L32.88-20.60Q34.51-20.60 35.63-19.93L35.63-19.93L35.63-19.93Q36.75-19.26 37.87-18.14ZM49.14-6.14L49.14-6.14L49.14-6.14Q49.14-4.52 49.81-3.72L49.81-3.72L49.81-3.72Q50.48-2.93 51.74-2.78L51.74-2.78L51.74 0.14L51.74 0.14Q51.60 0.18 51.27 0.18L51.27 0.18L51.27 0.18Q50.04 0.18 48.91-0.14L48.91-0.14L48.91-0.14Q47.77-0.47 46.90-1.19L46.90-1.19L46.90-1.19Q46.03-1.92 45.55-3.11L45.55-3.11L45.55-3.11Q45.06-4.30 45.06-6.03L45.06-6.03L45.06-6.03Q45.06-7.70 45.76-8.91L45.76-8.91L45.76-8.91Q46.47-10.12 47.57-10.89L47.57-10.89L47.57-10.89Q48.67-11.67 50.08-12.05L50.08-12.05L50.08-12.05Q51.49-12.43 52.93-12.43L52.93-12.43L54.52-12.43L54.52-9.86L53.73-9.86L53.73-9.86Q53.01-9.86 52.21-9.72L52.21-9.72L52.21-9.72Q51.42-9.58 50.73-9.18L50.73-9.18L50.73-9.18Q50.04-8.78 49.59-8.04L49.59-8.04L49.59-8.04Q49.14-7.30 49.14-6.14ZM60.38-6.32L60.38-6.03L60.38-6.03Q60.38-5.75 60.41-5.19L60.41-5.19L60.41-5.19Q60.45-4.63 60.56-4.05L60.56-4.05L60.56-4.05Q60.67-3.47 60.90-3.00L60.90-3.00L60.90-3.00Q61.14-2.53 61.53-2.38L61.53-2.38L60.38 0.04L60.38 0.04Q59.91 0.04 59.38-0.18L59.38-0.18L59.38-0.18Q58.86-0.40 58.37-0.79L58.37-0.79L58.37-0.79Q57.88-1.19 57.54-1.68L57.54-1.68L57.54-1.68Q57.20-2.17 57.02-2.75L57.02-2.75L57.02-2.75Q56.66-1.84 55.59-1.14L55.59-1.14L55.59-1.14Q54.52-0.43 53.22-0.11L53.22-0.11L53.22-2.85L53.22-2.85Q54.09-3.04 54.80-3.56L54.80-3.56L54.80-3.56Q55.50-4.08 56.01-4.81L56.01-4.81L56.01-12.43L56.01-12.43Q56.01-14.20 55.83-15.25L55.83-15.25L55.83-15.25Q55.64-16.30 55.21-16.78L55.21-16.78L55.21-16.78Q54.78-17.27 54.15-17.40L54.15-17.40L54.15-17.40Q53.51-17.52 52.65-17.52L52.65-17.52L52.65-17.52Q51.85-17.52 51.15-17.33L51.15-17.33L51.15-17.33Q50.44-17.13 49.85-16.86L49.85-16.86L49.85-16.86Q49.25-16.58 48.80-16.26L48.80-16.26L48.80-16.26Q48.35-15.93 48.13-15.75L48.13-15.75L46.50-18.25L46.50-18.25Q46.86-18.64 47.59-19.06L47.59-19.06L47.59-19.06Q48.31-19.48 49.25-19.80L49.25-19.80L49.25-19.80Q50.19-20.13 51.29-20.32L51.29-20.32L51.29-20.32Q52.39-20.52 53.58-20.52L53.58-20.52L53.58-20.52Q54.67-20.52 55.70-20.31L55.70-20.31L55.70-20.31Q56.73-20.09 57.58-19.58L57.58-19.58L57.58-19.58Q58.43-19.08 59.06-18.23L59.06-18.23L59.06-18.23Q59.69-17.38 59.94-16.12L59.94-16.12L59.94-16.12Q60.20-14.85 60.29-13.57L60.29-13.57L60.29-13.57Q60.38-12.29 60.38-11.02L60.38-11.02L60.38-6.32ZM67.28-20.38L71.22-20.38L71.69-18.32L71.69 8.02L67.28 8.02L67.28-20.38ZM85.09-14.20L85.09-14.20L85.09-14.20Q85.53-12.54 85.53-10.48L85.53-10.48L85.53-10.48Q85.53-8.42 85.04-6.49L85.04-6.49L85.04-6.49Q84.55-4.55 83.56-3.07L83.56-3.07L83.56-3.07Q82.56-1.59 81.06-0.70L81.06-0.70L81.06-0.70Q79.56 0.18 77.54 0.18L77.54 0.18L77.54 0.18Q76.28 0.18 75.14-0.11L75.14-0.11L75.14-0.11Q74-0.40 73.17-0.87L73.17-0.87L73.17-4.63L73.17-4.63Q74.36-3.22 76.10-3.22L76.10-3.22L76.10-3.22Q77.18-3.22 78.06-3.76L78.06-3.76L78.06-3.76Q78.95-4.30 79.58-5.22L79.58-5.22L79.58-5.22Q80.21-6.14 80.58-7.43L80.58-7.43L80.58-7.43Q80.94-8.71 80.94-10.15L80.94-10.15L80.94-10.15Q80.94-11.56 80.61-12.83L80.61-12.83L80.61-12.83Q80.29-14.09 79.69-15.07L79.69-15.07L79.69-15.07Q79.09-16.04 78.25-16.62L78.25-16.62L78.25-16.62Q77.40-17.20 76.28-17.20L76.28-17.20L76.28-17.20Q75.34-17.20 74.56-16.82L74.56-16.82L74.56-16.82Q73.78-16.44 73.17-15.75L73.17-15.75L73.17-19.58L73.17-19.58Q74-20.05 75.01-20.31L75.01-20.31L75.01-20.31Q76.02-20.56 77.11-20.56L77.11-20.56L77.11-20.56Q78.30-20.56 79.53-20.23L79.53-20.23L79.53-20.23Q80.76-19.91 81.82-19.15L81.82-19.15L81.82-19.15Q82.89-18.39 83.76-17.16L83.76-17.16L83.76-17.16Q84.62-15.93 85.09-14.20ZM108.65-24.17L105.65-21.50L105.65-21.50Q104.79-22.55 103.67-23.02L103.67-23.02L103.67-23.02Q102.54-23.49 101.35-23.49L101.35-23.49L101.21-23.49L101.21-27.06L101.24-27.06L101.24-27.06Q103.41-27.06 105.29-26.34L105.29-26.34L105.29-26.34Q107.17-25.62 108.65-24.17L108.65-24.17ZM90.15-13.44L90.15-13.44L90.15-13.44Q90.15-16.55 90.87-18.95L90.87-18.95L90.87-18.95Q91.60-21.35 92.86-23.03L92.86-23.03L92.86-23.03Q94.13-24.71 95.90-25.69L95.90-25.69L95.90-25.69Q97.67-26.67 99.73-26.92L99.73-26.92L99.73-23.31L99.73-23.31Q98.64-23.02 97.72-22.33L97.72-22.33L97.72-22.33Q96.80-21.64 96.10-20.43L96.10-20.43L96.10-20.43Q95.39-19.22 94.99-17.51L94.99-17.51L94.99-17.51Q94.60-15.79 94.56-13.44L94.56-13.44L94.56-13.44Q94.60-11.09 94.99-9.32L94.99-9.32L94.99-9.32Q95.39-7.55 96.10-6.27L96.10-6.27L96.10-6.27Q96.80-4.99 97.72-4.23L97.72-4.23L97.72-4.23Q98.64-3.47 99.73-3.18L99.73-3.18L99.73 0.11L99.73 0.11Q97.67-0.14 95.90-1.14L95.90-1.14L95.90-1.14Q94.13-2.13 92.86-3.83L92.86-3.83L92.86-3.83Q91.60-5.53 90.87-7.93L90.87-7.93L90.87-7.93Q90.15-10.33 90.15-13.44ZM101.21-13.73L110.02-13.73L110.02-3.43L110.02-3.43Q109.19-2.38 108.16-1.72L108.16-1.72L108.16-1.72Q107.13-1.05 106.00-0.61L106.00-0.61L106.00-0.61Q104.86-0.18 103.65 0L103.65 0L103.65 0Q102.44 0.18 101.24 0.18L101.24 0.18L101.21 0.18L101.21-3.00L101.21-3.00Q101.64-3.00 102.27-3.05L102.27-3.05L102.27-3.05Q102.91-3.11 103.57-3.23L103.57-3.23L103.57-3.23Q104.24-3.36 104.84-3.58L104.84-3.58L104.84-3.58Q105.44-3.79 105.72-4.19L105.72-4.19L105.72-10.77L101.21-10.77L101.21-13.73ZM125.53-17.16L125.53-20.56L125.53-20.56Q127.48-20.38 129.05-19.51L129.05-19.51L129.05-19.51Q130.62-18.64 131.74-17.27L131.74-17.27L131.74-17.27Q132.86-15.90 133.46-14.13L133.46-14.13L133.46-14.13Q134.05-12.36 134.05-10.44L134.05-10.44L134.05-10.44Q134.05-9.58 133.94-8.71L133.94-8.71L121.55-8.71L121.55-11.89L129.90-11.89L129.90-11.89Q129.90-12.83 129.59-13.69L129.59-13.69L129.59-13.69Q129.28-14.56 128.69-15.30L128.69-15.30L128.69-15.30Q128.09-16.04 127.30-16.55L127.30-16.55L127.30-16.55Q126.50-17.05 125.53-17.16L125.53-17.16ZM125.38-3.40L125.38-3.40L125.38-3.40Q125.78-3.40 126.37-3.49L126.37-3.49L126.37-3.49Q126.97-3.58 127.64-3.81L127.64-3.81L127.64-3.81Q128.31-4.05 128.98-4.41L128.98-4.41L128.98-4.41Q129.64-4.77 130.15-5.28L130.15-5.28L131.74-2.85L131.74-2.85Q130.55-1.37 128.96-0.61L128.96-0.61L128.96-0.61Q127.37 0.14 124.91 0.14L124.91 0.14L124.91 0.14Q122.92 0.14 121.19-0.67L121.19-0.67L121.19-0.67Q119.46-1.48 118.23-2.89L118.23-2.89L118.23-2.89Q117.00-4.30 116.28-6.18L116.28-6.18L116.28-6.18Q115.55-8.06 115.55-10.23L115.55-10.23L115.55-10.23Q115.55-12.29 116.22-14.13L116.22-14.13L116.22-14.13Q116.89-15.97 118.05-17.36L118.05-17.36L118.05-17.36Q119.20-18.75 120.74-19.62L120.74-19.62L120.74-19.62Q122.27-20.49 124.04-20.60L124.04-20.60L124.04-17.13L124.04-17.13Q122.71-16.87 121.84-16.04L121.84-16.04L121.84-16.04Q120.97-15.21 120.48-14.15L120.48-14.15L120.48-14.15Q120.00-13.08 119.80-11.96L119.80-11.96L119.80-11.96Q119.60-10.84 119.60-10.04L119.60-10.04L119.60-10.04Q119.60-8.64 119.94-7.43L119.94-7.43L119.94-7.43Q120.29-6.21 121.01-5.33L121.01-5.33L121.01-5.33Q121.73-4.44 122.80-3.92L122.80-3.92L122.80-3.92Q123.86-3.40 125.38-3.40ZM140.05-20.38L143.95-20.38L144.42-18.32L144.42 0L140.05 0L140.05-20.38ZM155.23-18.14L155.23-18.14L155.23-18.14Q155.84-17.52 156.18-16.71L156.18-16.71L156.18-16.71Q156.53-15.90 156.69-15.01L156.69-15.01L156.69-15.01Q156.85-14.13 156.89-13.22L156.89-13.22L156.89-13.22Q156.92-12.32 156.92-11.45L156.92-11.45L156.92-0.72L156.92 0L152.52 0L152.52-11.09L152.52-11.09Q152.52-12.32 152.41-13.44L152.41-13.44L152.41-13.44Q152.30-14.56 151.90-15.43L151.90-15.43L151.90-15.43Q151.50-16.30 150.82-16.78L150.82-16.78L150.82-16.78Q150.13-17.27 148.90-17.27L148.90-17.27L148.90-17.27Q148.40-17.27 147.55-17.11L147.55-17.11L147.55-17.11Q146.70-16.95 145.90-16.58L145.90-16.58L145.90-19.37L145.90-19.37Q146.88-19.87 148.02-20.23L148.02-20.23L148.02-20.23Q149.16-20.60 150.24-20.60L150.24-20.60L150.24-20.60Q151.87-20.60 152.99-19.93L152.99-19.93L152.99-19.93Q154.11-19.26 155.23-18.14Z" fill="url(#editing-gradient-gradient)"></path></g></g><style>text {
  font-size: 64px;
  font-family: Arial Black;
  dominant-baseline: central;
  text-anchor: middle;
}</style></svg>