<svg width="259.7px" height="147.2px" xmlns="http://www.w3.org/2000/svg" viewBox="120.15 1.4000000000000057 259.7 147.2" style="background: rgba(29, 63, 114, 0);" preserveAspectRatio="xMidYMid"><defs><linearGradient id="editing-gradient-gradient" x1="0" x2="1" y1="0.5" y2="0.5" gradientUnits="objectBoundingBox"><stop offset="0" stop-color="#214bc1"></stop><stop offset="1" stop-color="#d8ebf9"></stop></linearGradient></defs><g><g transform="translate(162.28497695922852, 100.28499412536621)"><path d="M11.75-49.16L11.75-49.16Q9.72-49.16 8.19-47.69L8.19-47.69L8.19-47.69Q6.75-46.25 6.05-44.31L6.05-44.31L6.05-44.31Q5.34-42.38 5.34-40.25L5.34-40.25L5.34-40.25Q5.34-37.16 6.28-34.06L6.28-34.06L6.28-34.06Q7-31.72 7.94-29.67L7.94-29.67L7.94-29.67Q8.88-27.63 10.41-24.69L10.41-24.69L11.28-23L11.28-23Q12.75-20.16 13.63-16.95L13.63-16.95L13.63-16.95Q14.50-13.75 14.50-10.63L14.50-10.63L14.50-10.63Q14.50-9.25 14.19-7.56L14.19-7.56L14.19-7.56Q13.88-5.88 13.25-4.16L13.25-4.16L13.25-4.16Q12.59-2.31 11.42-1.16L11.42-1.16L11.42-1.16Q10.25 0 8.81 0L8.81 0L8.81 0Q8.19 0 7.09-0.50L7.09-0.50L7.09-0.50Q5.94-0.97 5.28-0.97L5.28-0.97L5.28-0.97Q4.59-0.97 4.59-0.19L4.59-0.19L4.59-0.19Q5.03 0.56 5.78 0.91L5.78 0.91L5.78 0.91Q6.50 1.25 7.08 1.33L7.08 1.33L7.08 1.33Q7.66 1.41 8.81 1.41L8.81 1.41L8.81 1.41Q10.72 1.41 12.34 0.27L12.34 0.27L12.34 0.27Q13.97-0.88 14.94-2.75L14.94-2.75L14.94-2.75Q15.84-4.53 16.33-6.52L16.33-6.52L16.33-6.52Q16.81-8.50 16.81-10.31L16.81-10.31L16.81-10.31Q16.81-13.25 16.13-16.09L16.13-16.09L16.13-16.09Q15.59-18.34 14.84-20.20L14.84-20.20L14.84-20.20Q14.09-22.06 12.78-24.72L12.78-24.72L12.19-25.97L12.19-25.97Q10.97-28.44 9.94-30.66L9.94-30.66L9.94-30.66Q8.84-32.94 8.19-35.59L8.19-35.59L8.19-35.59Q7.53-38.25 7.53-40.78L7.53-40.78L7.53-40.78Q7.53-42.28 8-43.72L8-43.72L8-43.72Q8.50-45.31 9.64-46.41L9.64-46.41L9.64-46.41Q10.78-47.50 12.22-47.50L12.22-47.50L12.22-47.50Q12.69-47.50 13.28-47.19L13.28-47.19L13.28-47.19Q13.91-46.84 14.31-46.84L14.31-46.84L14.31-46.84Q14.72-46.84 14.72-47.34L14.72-47.34L14.72-47.34Q14.72-47.75 14.19-48.17L14.19-48.17L14.19-48.17Q13.66-48.59 12.94-48.88L12.94-48.88L12.94-48.88Q12.22-49.16 11.75-49.16L11.75-49.16ZM38.88-13.06L38.88-13.06Q39.19-12.09 40.06-9.72L40.06-9.72L40.06-9.72Q41.75-5.19 42.19-2.38L42.19-2.38L42.13-2.19L42.13-2.19Q42.28-1.94 42.41-1.28L42.41-1.28L42.41-1.28Q42.56-0.53 42.81-0.14L42.81-0.14L42.81-0.14Q43.06 0.25 43.53 0.25L43.53 0.25L43.53 0.25Q43.66 0.25 44.22 0.09L44.22 0.09L44.25 0.13L44.25 0.09L44.25 0.09Q45-0.13 45.34-0.19L45.34-0.19L45.34-0.19Q45.75-1 46.22-8L46.22-8L46.22-8Q46.69-15 47.03-23.38L47.03-23.38L47.03-23.38Q47.38-31.75 47.38-35.25L47.38-35.25L47.72-35.78L47.72-40.06L47.72-40.06Q47.72-40.75 47.31-41.33L47.31-41.33L47.31-41.33Q46.91-41.91 46.31-41.91L46.31-41.91L46.31-41.91Q45.41-41.91 45.41-40.56L45.41-40.56L45.47-39.75L45.53-38.97L45.53-38.97Q45.53-18.22 44.06-4.09L44.06-4.09L43.94-3.91L43.94-3.91Q43.03-5.47 42.36-7.48L42.36-7.48L42.36-7.48Q41.69-9.50 41.06-12.31L41.06-12.31L41.06-12.31Q40.44-14.91 40.03-16.25L40.03-16.25L40.03-16.25Q38.88-19.81 35.47-27.72L35.47-27.72L35.47-27.72Q31.97-35.84 30.88-40.44L30.88-40.44L30.81-40.78L30.72-41.16L30.72-41.16Q30.59-41.50 30.44-41.72L30.44-41.72L30.44-41.72Q30.16-42 29.84-42.13L29.84-42.13L29.22-41.97L29.03-42.19L29.03-42.19Q27.88-41.22 27.88-38.06L27.88-38.06L27.88-37.25L27.88-37.25Q27.88-35.41 27.69-31.59L27.69-31.59L27.69-31.59Q27.47-28.06 27.47-25.91L27.47-25.91L27.47-25.91Q27.47-22.41 27.69-16.72L27.69-16.72L27.69-16.72Q27.88-10.59 27.88-7.50L27.88-7.50L27.88-7.50Q27.88-6.63 27.75-5.41L27.75-5.41L27.75-5.41Q27.63-4.16 27.63-3.31L27.63-3.31L27.63-3.31Q27.63 0.13 28.97 0.13L28.97 0.13L28.97 0.13Q29.50 0.13 29.83-0.27L29.83-0.27L29.83-0.27Q30.16-0.66 30.16-1.16L30.16-1.16L30.16-1.16Q30.16-2.06 29.91-2.50L29.91-2.50L29.91-8.25L29.91-8.25Q29.47-9.41 29.47-20.03L29.47-20.03L29.66-20.03L29.53-22.09L29.53-22.09Q29.41-23.47 29.41-24.50L29.41-24.50L29.47-26.03L29.53-27.59L29.47-30.09L29.41-32.63L29.41-32.63Q29.41-35.22 29.91-37.13L29.91-37.13L29.91-37.13Q31.41-35.69 37.16-17.84L37.16-17.84L37.16-17.84Q38.66-13.31 38.88-13.06L38.88-13.06ZM61.31-9.84L61.31-9.84Q61.91-9.84 63.53-9.69L63.53-9.69L63.53-9.69Q65.16-9.53 65.88-9.53L65.88-9.53L65.88-9.53Q67.88-9.53 69.03-9.22L69.03-9.22L70.09-0.84L70.09-0.84Q70.19-0.16 70.31 0.13L70.31 0.13L70.31 0.13Q70.44 0.41 70.72 0.48L70.72 0.48L70.72 0.48Q71 0.56 71.69 0.56L71.69 0.56L71.69 0.56Q72.19 0.28 72.19-0.38L72.19-0.38L72.19-0.56L72.19-0.56Q69.41-22.53 68.63-31.56L68.63-31.56L68.25-34.94L68.25-34.94Q68-37.13 67.89-38.64L67.89-38.64L67.89-38.64Q67.78-40.16 67.78-41.97L67.78-41.97L67.78-41.97Q67.78-42.38 67.42-42.66L67.42-42.66L67.42-42.66Q67.06-42.94 66.63-42.94L66.63-42.94L66.63-42.94Q66.25-42.56 65.47-42.56L65.47-42.56L65.47-42.56Q65.22-42.56 65.03-42.59L65.03-42.59L64.59-42.63L64.59-42.63Q64.44-42.34 64.19-40.72L64.19-40.72L64.19-40.72Q64.03-39.84 63.88-38.13L63.88-38.13L63.75-37.09L63.50-34.75L63.50-34.75Q63.19-32.72 62.38-28.81L62.38-28.81L62.38-28.81Q61.53-25 61.25-23.22L61.25-23.22L60.56-19L60.19-16.75L60.19-16.75Q59.97-15.31 59.75-14.16L59.75-14.16L59.03-10.19L59.03-10.19Q58.16-5.25 57.09-1.16L57.09-1.16L57.03-0.97L56.97-0.78L56.97-0.78Q56.97-0.41 57.41-0.05L57.41-0.05L57.41-0.05Q57.84 0.31 58.25 0.31L58.25 0.31L58.25 0.31Q58.75 0.31 59.22-0.78L59.22-0.78L59.22-0.78Q59.63-1.84 59.97-3.47L59.97-3.47L59.97-3.47Q60.53-6.44 60.69-8.06L60.69-8.06L60.81-9.34L60.81-9.34Q60.84-9.38 60.84-9.44L60.84-9.44L60.84-9.44Q60.84-9.50 60.88-9.56L60.88-9.56L60.88-9.56Q60.91-9.72 61-9.78L61-9.78L61-9.78Q61.09-9.84 61.31-9.84L61.31-9.84ZM61.38-11.75L61.38-11.75Q61.38-13.78 62.84-21.06L62.84-21.06L62.84-21.06Q63-21.69 66.31-38.16L66.31-38.16L66.31-38.16Q68.28-17.66 68.75-10.94L68.75-10.94L68.09-10.94L68.09-10.94Q66.31-10.94 63.84-11.19L63.84-11.19L63.84-11.19Q61.38-11.44 61.38-11.75L61.38-11.75ZM83.34 1.28L83.34 1.28Q84.56 1.28 84.56 0.13L84.56 0.13L84.56 0.13Q84.56-1.66 84.31-6.09L84.31-6.09L84.31-6.09Q84.03-10.28 84.03-12.34L84.03-12.34L84.03-19.97L84.03-19.97Q85.53-20.44 86.69-21L86.69-21L86.69-21Q87.91-21.59 88.67-22.16L88.67-22.16L88.67-22.16Q89.44-22.72 89.94-23.53L89.94-23.53L89.94-23.53Q90.53-24.47 90.81-25.19L90.81-25.19L90.81-25.19Q91.09-25.91 91.22-27.09L91.22-27.09L91.22-27.09Q91.34-28.28 91.38-29.42L91.38-29.42L91.38-29.42Q91.41-30.56 91.41-32.06L91.41-32.06L91.41-32.06Q91.41-38.19 89.81-39.63L89.81-39.63L89.81-39.63Q88.91-40.38 87.63-41.05L87.63-41.05L87.63-41.05Q86.34-41.72 85.63-41.72L85.63-41.72L82.81-41.72L82.81-41.72Q82.47-41.72 81.88-40.13L81.88-40.13L81.88-40.13Q82.25-39.16 82.25-27.72L82.25-27.72L82.25-27.72Q82.25-22.91 81.59-21.81L81.59-21.81L81.59-21.81Q81.59-21.25 82-20.34L82-20.34L82-20.34Q82-17.94 81.88-14.41L81.88-14.41L81.88-14.41Q81.72-9.97 81.72-8.44L81.72-8.44L81.72-8.44Q81.72-3.16 82.44 0.78L82.44 0.78L83.34 1.28ZM84.28-28.81L84.28-28.81Q84.28-30 84.13-33.44L84.13-33.44L84.13-33.44Q83.97-36.81 83.97-38.03L83.97-38.03L83.97-38.03Q83.97-38.97 84.27-39.36L84.27-39.36L84.27-39.36Q84.56-39.75 85.38-39.75L85.38-39.75L85.38-39.75Q86.44-39.75 87.19-39.38L87.19-39.38L87.19-39.38Q87.94-39 88.34-38.47L88.34-38.47L88.34-38.47Q88.75-37.94 89-37.06L89-37.06L89-37.06Q89.22-36.25 89.28-35.56L89.28-35.56L89.28-35.56Q89.34-34.88 89.34-33.72L89.34-33.72L89.34-32L89.34-32Q89.25-29.31 88.97-27.72L88.97-27.72L88.97-27.72Q88.44-25.03 87.56-23.84L87.56-23.84L87.56-23.84Q87-23.09 86.20-22.63L86.20-22.63L86.20-22.63Q85.41-22.16 84.44-22.16L84.44-22.16L84.03-22.78L84.03-22.78Q84.03-24 84.16-25.78L84.16-25.78L84.16-25.78Q84.28-27.56 84.28-28.81L84.28-28.81ZM101.59-27.41L101.59-27.41Q101.59-12.72 103.88-5.88L103.88-5.88L103.88-5.88Q106.19 1.03 111.03 1.03L111.03 1.03L111.03 1.03Q113.75 1.03 117.47-1.09L117.47-1.09L117.44-0.94L117.41-0.78L117.41-0.78Q117.41 0.63 118.94 0.63L118.94 0.63L118.94 0.63Q119.78 0.63 119.78-0.38L119.78-0.38L119.78-0.38Q119.78-2.19 119.16-6.09L119.16-6.09L119.16-6.09Q118.50-9.91 118.50-11.78L118.50-11.78L118.50-11.78Q118.50-12.97 118-13.72L118-13.72L118-13.72Q117.50-14.47 116.50-14.47L116.50-14.47L116.50-14.47Q115.25-14.47 113.48-14.03L113.48-14.03L113.48-14.03Q111.72-13.59 111.72-13.06L111.72-13.06L111.72-13.06Q111.72-11.97 113.19-11.97L113.19-11.97L113.19-11.97Q113.75-11.97 114.50-12.09L114.50-12.09L114.50-12.09Q115.25-12.22 115.75-12.22L115.75-12.22L115.75-12.22Q116.25-12.22 116.63-11.16L116.63-11.16L116.63-11.16Q117-9.94 117.13-8.50L117.13-8.50L117.13-8.50Q117.41-5.81 117.41-3.97L117.41-3.97L117.41-3.97Q115.34-0.78 111.97-0.78L111.97-0.78L111.97-0.78Q109.97-0.78 108.50-2.22L108.50-2.22L108.50-2.22Q107.03-3.59 106.14-5.73L106.14-5.73L106.14-5.73Q105.25-7.88 104.69-11.03L104.69-11.03L104.69-11.03Q104.16-13.88 103.95-16.53L103.95-16.53L103.95-16.53Q103.75-19.19 103.75-22.34L103.75-22.34L103.75-22.34Q103.75-25.16 103.78-25.84L103.78-25.84L103.84-30.06L103.84-30.06Q103.91-33.31 104.19-35.72L104.19-35.72L104.19-35.72Q104.59-39.41 105.19-41.41L105.19-41.41L105.19-41.41Q105.56-42.72 106.13-43.91L106.13-43.91L106.13-43.91Q106.69-45.09 107.31-45.81L107.31-45.81L107.31-45.81Q108-46.63 108.94-47.09L108.94-47.09L108.94-47.09Q109.88-47.56 110.94-47.56L110.94-47.56L110.94-47.56Q111.16-47.56 111.84-47.41L111.84-47.41L111.84-47.41Q112.44-47.22 112.75-47.22L112.75-47.22L112.75-47.22Q113.69-47.22 113.69-48L113.69-48L113.69-48Q113.69-49.09 111.78-49.09L111.78-49.09L111.78-49.09Q110.25-49.09 108.84-48.56L108.84-48.56L108.84-48.56Q107.47-48.03 106.50-47.17L106.50-47.17L106.50-47.17Q105.53-46.31 104.75-45L104.75-45L104.75-45Q103.94-43.59 103.44-42.30L103.44-42.30L103.44-42.30Q102.94-41 102.59-39.31L102.59-39.31L102.59-39.31Q102.22-37.50 102.03-36.11L102.03-36.11L102.03-36.11Q101.84-34.72 101.75-32.94L101.75-32.94L101.75-32.94Q101.59-30.53 101.59-27.41L101.59-27.41ZM130.81-2.13L130.81-2.13Q130.81-1.69 130.78-1.31L130.78-1.31L130.78-1.31Q130.75-0.94 130.75-0.50L130.75-0.50L130.75-0.50Q130.84 0.84 132.03 0.84L132.03 0.84L137.31 0.84L137.31 0.84Q140.09 0.84 140.09-0.31L140.09-0.31L140.09-0.31Q140.09-1.16 138.22-1.16L138.22-1.16L137-1.09L135.84-1.03L135.84-1.03Q134.31-1.03 133.75-1.52L133.75-1.52L133.75-1.52Q133.19-2 133.09-3.47L133.09-3.47L133.09-3.47Q132.91-6.06 132.91-8.56L132.91-8.56L132.97-13.13L133.03-17.66L133.03-17.66Q133.03-21.25 132.91-22.72L132.91-22.72L132.91-22.91L133.22-23.22L133.50-23.22L135.59-22.91L135.59-22.91Q136-22.41 137.06-22.41L137.06-22.41L137.06-22.41Q137.66-22.41 138-22.89L138-22.89L138-22.89Q138.34-23.38 138.34-24.06L138.34-24.06L138.34-24.06Q138.31-25.22 135.84-25.22L135.84-25.22L135.84-25.22Q135.69-25.22 134.75-25.16L134.75-25.16L133.69-25.09L133.69-25.09Q132.78-25.09 132.78-26.88L132.78-26.88L132.78-26.88Q132.78-28.88 132.91-31.84L132.91-31.84L132.91-31.84Q133.03-34.81 133.03-36.81L133.03-36.81L133.03-36.81Q133.03-38.38 132.97-39.56L132.97-39.56L133.28-39.94L133.28-39.94Q134.97-39.88 138.47-38.72L138.47-38.72L138.47-38.72Q139.66-39.41 139.66-40L139.66-40L139.66-40Q139.66-40.59 138.47-40.97L138.47-40.97L138.47-40.97Q137.28-41.34 135.69-41.53L135.69-41.53L135.69-41.53Q134.22-41.69 133.81-41.78L133.81-41.78L133.81-41.78Q133.50-42.19 132.78-42.19L132.78-42.19L132.78-42.19Q131.78-42.19 131.36-41.75L131.36-41.75L131.36-41.75Q130.94-41.31 130.94-40.38L130.94-40.38L130.94-40.38Q130.94-38.81 131.06-36.56L131.06-36.56L131.06-36.56Q131.19-34.28 131.19-32.72L131.19-32.72L131.19-32.72Q131.19-29.06 130.97-23.06L130.97-23.06L130.97-23.06Q130.75-17.06 130.75-13.44L130.75-13.44L130.75-13.44Q130.75-12.34 130.91-9.22L130.91-9.22L130.91-9.22Q131.06-6.09 131.06-5L131.06-5L131.06-5Q131.06-3.66 130.59-2.38L130.59-2.38L130.81-2.13ZM162-13.06L162-13.06Q162.31-12.09 163.19-9.72L163.19-9.72L163.19-9.72Q164.88-5.19 165.31-2.38L165.31-2.38L165.25-2.19L165.25-2.19Q165.41-1.94 165.53-1.28L165.53-1.28L165.53-1.28Q165.69-0.53 165.94-0.14L165.94-0.14L165.94-0.14Q166.19 0.25 166.66 0.25L166.66 0.25L166.66 0.25Q166.78 0.25 167.34 0.09L167.34 0.09L167.38 0.13L167.38 0.09L167.38 0.09Q168.13-0.13 168.47-0.19L168.47-0.19L168.47-0.19Q168.88-1 169.34-8L169.34-8L169.34-8Q169.81-15 170.16-23.38L170.16-23.38L170.16-23.38Q170.50-31.75 170.50-35.25L170.50-35.25L170.84-35.78L170.84-40.06L170.84-40.06Q170.84-40.75 170.44-41.33L170.44-41.33L170.44-41.33Q170.03-41.91 169.44-41.91L169.44-41.91L169.44-41.91Q168.53-41.91 168.53-40.56L168.53-40.56L168.59-39.75L168.66-38.97L168.66-38.97Q168.66-18.22 167.19-4.09L167.19-4.09L167.06-3.91L167.06-3.91Q166.16-5.47 165.48-7.48L165.48-7.48L165.48-7.48Q164.81-9.50 164.19-12.31L164.19-12.31L164.19-12.31Q163.56-14.91 163.16-16.25L163.16-16.25L163.16-16.25Q162-19.81 158.59-27.72L158.59-27.72L158.59-27.72Q155.09-35.84 154-40.44L154-40.44L153.94-40.78L153.84-41.16L153.84-41.16Q153.72-41.50 153.56-41.72L153.56-41.72L153.56-41.72Q153.28-42 152.97-42.13L152.97-42.13L152.34-41.97L152.16-42.19L152.16-42.19Q151-41.22 151-38.06L151-38.06L151-37.25L151-37.25Q151-35.41 150.81-31.59L150.81-31.59L150.81-31.59Q150.59-28.06 150.59-25.91L150.59-25.91L150.59-25.91Q150.59-22.41 150.81-16.72L150.81-16.72L150.81-16.72Q151-10.59 151-7.50L151-7.50L151-7.50Q151-6.63 150.88-5.41L150.88-5.41L150.88-5.41Q150.75-4.16 150.75-3.31L150.75-3.31L150.75-3.31Q150.75 0.13 152.09 0.13L152.09 0.13L152.09 0.13Q152.63 0.13 152.95-0.27L152.95-0.27L152.95-0.27Q153.28-0.66 153.28-1.16L153.28-1.16L153.28-1.16Q153.28-2.06 153.03-2.50L153.03-2.50L153.03-8.25L153.03-8.25Q152.59-9.41 152.59-20.03L152.59-20.03L152.78-20.03L152.66-22.09L152.66-22.09Q152.53-23.47 152.53-24.50L152.53-24.50L152.59-26.03L152.66-27.59L152.59-30.09L152.53-32.63L152.53-32.63Q152.53-35.22 153.03-37.13L153.03-37.13L153.03-37.13Q154.53-35.69 160.28-17.84L160.28-17.84L160.28-17.84Q161.78-13.31 162-13.06L162-13.06Z" fill="url(#editing-gradient-gradient)"></path></g></g><style>text {
  font-size: 64px;
  font-family: Arial Black;
  dominant-baseline: central;
  text-anchor: middle;
}</style></svg>