<?xml version="1.0" encoding="iso-8859-1"?>
<!-- Uploaded to: SVG Repo, www.svgrepo.com, Generator: SVG Repo Mixer Tools -->
<svg height="800px" width="800px" version="1.1" id="Layer_1" xmlns="http://www.w3.org/2000/svg" xmlns:xlink="http://www.w3.org/1999/xlink" 
	 viewBox="0 0 512 512" xml:space="preserve">
<g>
	<path style="fill:#1C9AD6;" d="M409.6,25.6c-47.053,0-85.333,38.281-85.333,85.333s38.281,85.333,85.333,85.333
		s85.333-38.281,85.333-85.333S456.653,25.6,409.6,25.6z"/>
	<path style="fill:#1C9AD6;" d="M232.574,12.881c-41.149,0-74.626,33.477-74.626,74.626s33.477,74.626,74.626,74.626
		S307.2,128.656,307.2,87.507S273.723,12.881,232.574,12.881z"/>
	<path style="fill:#1C9AD6;" d="M78.974,0C44.838,0,17.067,27.772,17.067,61.907s27.772,61.907,61.907,61.907
		s61.907-27.772,61.907-61.907S113.109,0,78.974,0z"/>
	<path style="fill:#1C9AD6;" d="M76.8,128C34.452,128,0,162.452,0,204.8v110.933c0,4.713,3.821,8.533,8.533,8.533h136.533
		c4.713,0,8.533-3.821,8.533-8.533V204.8C153.6,162.452,119.148,128,76.8,128z"/>
</g>
<g>
	<path style="fill:#1C74BB;" d="M42.667,61.907c0-29.747,21.093-54.655,49.107-60.569C87.642,0.466,83.362,0,78.974,0
		C44.838,0,17.067,27.772,17.067,61.907s27.772,61.907,61.907,61.907c4.388,0,8.668-0.466,12.8-1.339
		C63.76,116.562,42.667,91.654,42.667,61.907z"/>
	<path style="fill:#1C74BB;" d="M25.6,315.733V204.8c0-37.986,27.726-69.599,64-75.713C85.435,128.385,81.163,128,76.8,128
		C34.452,128,0,162.452,0,204.8v110.933c0,4.713,3.821,8.533,8.533,8.533h25.6C29.421,324.267,25.6,320.446,25.6,315.733z"/>
</g>
<path style="fill:#1C9AD6;" d="M323.489,252.434c-2.836-22.005-13.388-42.271-29.901-57.313
	c-17.313-15.77-39.754-24.454-63.188-24.454s-45.875,8.685-63.187,24.454c-16.513,15.043-27.065,35.309-29.901,57.313
	c-0.499,1.086-0.779,2.293-0.779,3.566v153.6c0,4.713,3.821,8.533,8.533,8.533h170.667c4.713,0,8.533-3.821,8.533-8.533V256
	C324.267,254.727,323.987,253.52,323.489,252.434z"/>
<g>
	<path style="fill:#1C74BB;" d="M183.548,87.507c0-36.783,26.757-67.414,61.826-73.505c-4.162-0.722-8.434-1.121-12.8-1.121
		c-41.149,0-74.626,33.477-74.626,74.626s33.477,74.626,74.626,74.626c4.366,0,8.638-0.399,12.8-1.121
		C210.306,154.922,183.548,124.29,183.548,87.507z"/>
	<path style="fill:#1C74BB;" d="M162.133,409.6V256c0-1.273,0.279-2.48,0.778-3.566c2.836-22.005,13.388-42.271,29.901-57.313
		c14.129-12.87,31.675-21.015,50.387-23.578c-4.217-0.577-8.491-0.877-12.8-0.877c-23.435,0-45.875,8.685-63.187,24.454
		c-16.513,15.043-27.065,35.309-29.901,57.313c-0.498,1.086-0.778,2.293-0.778,3.566v153.6c0,4.713,3.821,8.533,8.533,8.533h25.6
		C165.954,418.133,162.133,414.313,162.133,409.6z"/>
</g>
<path style="fill:#1C9AD6;" d="M409.6,204.8c-56.464,0-102.4,45.936-102.4,102.4v196.267c0,4.713,3.821,8.533,8.533,8.533h187.733
	c4.713,0,8.533-3.821,8.533-8.533V307.2C512,250.736,466.064,204.8,409.6,204.8z"/>
<g>
	<path style="fill:#1C74BB;" d="M349.867,110.933c0-42.703,31.531-78.177,72.533-84.371c-4.177-0.63-8.45-0.962-12.8-0.962
		c-47.053,0-85.333,38.281-85.333,85.333s38.281,85.333,85.333,85.333c4.35,0,8.623-0.332,12.8-0.962
		C381.397,189.11,349.867,153.636,349.867,110.933z"/>
	<path style="fill:#1C74BB;" d="M332.8,503.467V307.2c0-52.129,39.155-95.283,89.6-101.601c-4.194-0.525-8.466-0.799-12.8-0.799
		c-56.464,0-102.4,45.936-102.4,102.4v196.267c0,4.713,3.821,8.533,8.533,8.533h25.6C336.621,512,332.8,508.179,332.8,503.467z"/>
</g>
</svg>